<?xml version="1.0" encoding="utf-8"?>
<!-- Generator: Adobe Illustrator 16.0.0, SVG Export Plug-In . SVG Version: 6.00 Build 0)  -->
<!DOCTYPE svg PUBLIC "-//W3C//DTD SVG 1.1//EN" "http://www.w3.org/Graphics/SVG/1.1/DTD/svg11.dtd">
<svg version="1.1" id="Layer_1" xmlns="http://www.w3.org/2000/svg" xmlns:xlink="http://www.w3.org/1999/xlink" x="0px" y="0px"
	 width="60.561px" height="92px" viewBox="267.359 374.945 60.561 92" enable-background="new 267.359 374.945 60.561 92"
	 xml:space="preserve">
<g>
	<g>
		<path fill="#258CEB" d="M325.935,383.933c-4.984,0-9.039-3.141-9.039-7.001c0-0.869-0.703-1.572-1.572-1.572h-35.368
			c-0.869,0-1.572,0.703-1.572,1.572c0,3.861-4.054,7.001-9.039,7.001c-0.869,0-1.572,0.703-1.572,1.572v25.725
			c0,11.061,6.626,20.884,16.881,25.026l4.598,1.858l-2.352,12.697h-8.124c-0.869,0-1.572,0.703-1.572,1.572v12.575
			c0,0.869,0.703,1.572,1.572,1.572h37.726c0.868,0,1.571-0.703,1.571-1.572v-12.575c0-0.869-0.703-1.572-1.571-1.572h-8.124
			l-2.353-12.697l4.599-1.858c10.254-4.143,16.881-13.966,16.881-25.026v-25.725C327.506,384.636,326.803,383.933,325.935,383.933z"
			/>
		<path fill="#258CEB" d="M316.503,466.945h-37.726c-1.096,0-1.986-0.892-1.986-1.986v-12.575c0-1.096,0.891-1.986,1.986-1.986
			h7.779l2.228-12.025l-4.284-1.731c-10.413-4.207-17.141-14.182-17.141-25.411v-25.725c0-1.095,0.891-1.986,1.986-1.986
			c4.755,0,8.624-2.955,8.624-6.587c0-1.095,0.891-1.986,1.986-1.986h35.368c1.096,0,1.987,0.891,1.987,1.986
			c0,3.632,3.868,6.587,8.624,6.587c1.095,0,1.985,0.891,1.985,1.986v25.725c0,11.229-6.728,21.204-17.14,25.411l-4.284,1.731
			l2.228,12.025h7.779c1.095,0,1.986,0.891,1.986,1.986v12.575C318.49,466.054,317.598,466.945,316.503,466.945z M278.777,451.226
			c-0.639,0-1.158,0.52-1.158,1.158v12.575c0,0.639,0.519,1.157,1.158,1.157h37.726c0.638,0,1.157-0.519,1.157-1.157v-12.575
			c0-0.639-0.52-1.158-1.157-1.158h-8.469l-2.477-13.369l4.912-1.984c10.098-4.08,16.622-13.753,16.622-24.643v-25.725
			c0-0.638-0.52-1.157-1.157-1.157c-5.213,0-9.453-3.327-9.453-7.416c0-0.638-0.52-1.158-1.158-1.158h-35.368
			c-0.638,0-1.158,0.52-1.158,1.158c0,4.089-4.24,7.416-9.453,7.416c-0.638,0-1.158,0.519-1.158,1.157v25.725
			c0,10.89,6.525,20.563,16.622,24.643l4.912,1.984l-2.477,13.369H278.777z"/>
	</g>
	<g>
		<rect x="280.349" y="453.955" fill="#C0EEC7" width="34.582" height="9.432"/>
		<path fill="#C0EEC7" d="M315.345,463.802h-35.411v-10.261h35.411V463.802z M280.763,462.973h33.752v-8.603h-33.752V462.973z"/>
	</g>
	<g>
		<path fill="#C0EEC7" d="M305.182,450.812h-15.084l2.129-11.495l4.823,1.949c0.189,0.076,0.39,0.114,0.589,0.114
			s0.4-0.038,0.59-0.114l4.822-1.949L305.182,450.812z"/>
		<path fill="#C0EEC7" d="M305.68,451.226h-16.081l2.313-12.483l5.293,2.139c0.275,0.112,0.594,0.111,0.868,0l5.294-2.139
			L305.68,451.226z M290.596,450.397h14.087l-1.945-10.507l-4.353,1.759c-0.475,0.192-1.016,0.192-1.49,0l-4.353-1.759
			L290.596,450.397z"/>
	</g>
	<g>
		<path fill="#C0EEC7" d="M324.363,411.229c0,9.772-5.854,18.452-14.916,22.113l-11.807,4.771l-11.806-4.771
			c-9.062-3.661-14.917-12.341-14.917-22.113v-24.237c5.357-0.577,9.634-4.063,10.465-8.489h32.516
			c0.831,4.426,5.107,7.912,10.465,8.489V411.229z"/>
		<path fill="#C0EEC7" d="M297.64,438.561l-11.961-4.834c-9.219-3.725-15.176-12.555-15.176-22.497v-24.609l0.37-0.04
			c5.151-0.555,9.305-3.908,10.102-8.153l0.063-0.338h33.204l0.063,0.338c0.797,4.246,4.951,7.598,10.102,8.153l0.37,0.04v24.609
			c0,9.942-5.956,18.772-15.175,22.497L297.64,438.561z M271.332,387.36v23.87c0,9.602,5.753,18.132,14.657,21.729l11.651,4.709
			l11.651-4.709c8.903-3.597,14.657-12.126,14.657-21.729v-23.87c-5.206-0.695-9.398-4.104-10.388-8.442h-31.842
			C280.729,383.256,276.537,386.665,271.332,387.36z"/>
	</g>
	<g>
		<path fill="#258CEB" d="M305.499,458.672c0,0.868-0.703,1.571-1.572,1.571h-12.575c-0.869,0-1.572-0.703-1.572-1.571
			c0-0.869,0.704-1.572,1.572-1.572h12.575C304.796,457.1,305.499,457.803,305.499,458.672z"/>
		<path fill="#258CEB" d="M303.927,460.657h-12.575c-1.095,0-1.986-0.891-1.986-1.985c0-1.096,0.891-1.987,1.986-1.987h12.575
			c1.096,0,1.986,0.892,1.986,1.987C305.913,459.767,305.023,460.657,303.927,460.657z M291.352,457.514
			c-0.639,0-1.158,0.52-1.158,1.158c0,0.638,0.519,1.157,1.158,1.157h12.575c0.639,0,1.158-0.52,1.158-1.157
			c0-0.639-0.52-1.158-1.158-1.158H291.352z"/>
	</g>
	<g>
		<g>
			<path fill="#258CEB" d="M298.823,390.432c-0.211-0.465-0.674-0.763-1.184-0.763s-0.973,0.298-1.184,0.763l-4.265,9.424
				L281.911,401c-0.507,0.057-0.935,0.404-1.091,0.89c-0.158,0.484-0.017,1.017,0.36,1.361l7.643,6.968l-2.086,10.13
				c-0.103,0.5,0.097,1.013,0.509,1.313c0.414,0.302,0.962,0.332,1.406,0.079l8.989-5.117l8.988,5.117
				c0.2,0.113,0.423,0.17,0.643,0.17c0.27,0,0.537-0.084,0.764-0.249c0.413-0.299,0.611-0.813,0.509-1.313l-2.086-10.13l7.643-6.968
				c0.377-0.344,0.518-0.876,0.36-1.361c-0.157-0.486-0.585-0.833-1.093-0.89l-10.279-1.144L298.823,390.432z"/>
			<path fill="#258CEB" d="M288.009,422.325c-0.364,0-0.713-0.114-1.008-0.329c-0.542-0.394-0.805-1.073-0.67-1.731l2.039-9.899
				l-7.469-6.81c-0.496-0.453-0.682-1.157-0.475-1.795c0.207-0.638,0.771-1.099,1.44-1.174l10.045-1.118l4.168-9.208
				c0.277-0.612,0.889-1.007,1.561-1.007c0.671,0,1.284,0.396,1.561,1.007l4.168,9.209l10.045,1.118
				c0.669,0.075,1.234,0.536,1.441,1.175c0.207,0.638,0.021,1.342-0.476,1.794l-7.469,6.81l2.039,9.898
				c0.135,0.658-0.128,1.338-0.671,1.731c-0.296,0.215-0.644,0.328-1.008,0.328c-0.297,0-0.59-0.077-0.848-0.225l-8.783-5l-8.784,5
				C288.599,422.247,288.305,422.325,288.009,422.325z M297.64,390.083c-0.347,0-0.663,0.204-0.806,0.52l-4.363,9.639l-10.514,1.17
				c-0.345,0.039-0.637,0.277-0.743,0.606c-0.107,0.33-0.011,0.694,0.245,0.927l7.817,7.127l-2.134,10.361
				c-0.07,0.339,0.066,0.69,0.346,0.894c0.278,0.203,0.661,0.224,0.957,0.054l9.194-5.233l9.193,5.233
				c0.295,0.168,0.68,0.147,0.958-0.054c0.28-0.203,0.416-0.554,0.346-0.894l-2.134-10.361l7.817-7.127
				c0.256-0.233,0.353-0.597,0.245-0.927c-0.106-0.33-0.398-0.568-0.744-0.606l-10.514-1.17l-4.362-9.639
				C298.303,390.287,297.986,390.083,297.64,390.083z"/>
		</g>
		<path fill="#FFFFFF" d="M304.16,408.797c-0.339,0.31-0.49,0.773-0.397,1.223l1.658,8.043L298.282,414
			c-0.2-0.113-0.42-0.17-0.643-0.17c-0.222,0-0.442,0.057-0.643,0.17l-7.138,4.063l1.657-8.043c0.093-0.449-0.058-0.913-0.396-1.223
			l-6.069-5.534l8.163-0.908c0.456-0.051,0.851-0.338,1.04-0.756l3.386-7.481l3.386,7.481c0.189,0.417,0.585,0.705,1.04,0.756
			l8.163,0.908L304.16,408.797z"/>
	</g>
</g>
</svg>
