<?xml version="1.0" encoding="utf-8"?>
<!-- Generator: Adobe Illustrator 16.0.0, SVG Export Plug-In . SVG Version: 6.00 Build 0)  -->
<!DOCTYPE svg PUBLIC "-//W3C//DTD SVG 1.1//EN" "http://www.w3.org/Graphics/SVG/1.1/DTD/svg11.dtd">
<svg version="1.1" id="Layer_1" xmlns="http://www.w3.org/2000/svg" xmlns:xlink="http://www.w3.org/1999/xlink" x="0px" y="0px"
	 width="68.967px" height="92px" viewBox="263.156 374.945 68.967 92" enable-background="new 263.156 374.945 68.967 92"
	 xml:space="preserve">
<g>
	<path fill="#C0EEC7" d="M327.384,415.223c0.931-1.535,1.997-3.263,1.997-5.326c0-2.063-1.066-3.81-1.997-5.326
		c-0.575-0.935-1.117-1.816-1.32-2.61c-0.22-0.847-0.169-1.922-0.136-3.068c0.068-1.782,0.152-3.81-0.813-5.52
		c-0.965-1.746-2.708-2.698-4.232-3.527c-0.965-0.529-1.862-1.023-2.438-1.623s-1.05-1.552-1.557-2.557
		c-0.796-1.587-1.693-3.386-3.386-4.409c-1.659-1.005-3.606-0.917-5.299-0.847c-1.101,0.053-2.133,0.088-2.946-0.141
		c-0.762-0.211-1.608-0.776-2.488-1.358c-1.456-0.952-3.132-2.063-5.112-2.063s-3.656,1.111-5.112,2.082
		c-0.897,0.599-1.744,1.164-2.505,1.375c-0.813,0.229-1.845,0.177-2.946,0.141c-1.709-0.07-3.64-0.159-5.298,0.847
		c-1.676,1.005-2.59,2.821-3.386,4.409c-0.508,1.005-0.982,1.94-1.558,2.557c-0.576,0.6-1.49,1.093-2.438,1.623
		c-1.523,0.829-3.267,1.763-4.232,3.527c-0.965,1.728-0.88,3.756-0.812,5.537c0.051,1.146,0.084,2.222-0.136,3.068
		c-0.203,0.793-0.745,1.676-1.32,2.61c-0.931,1.534-1.998,3.262-1.998,5.326c0,2.063,1.066,3.809,1.998,5.326
		c0.576,0.934,1.117,1.816,1.303,2.592c0.22,0.847,0.169,1.922,0.135,3.069c-0.067,1.781-0.152,3.809,0.813,5.52
		c0.965,1.746,2.708,2.698,4.232,3.527c0.965,0.529,1.862,1.022,2.455,1.622c0.576,0.6,1.05,1.552,1.558,2.54
		c0.373,0.758,0.795,1.569,1.287,2.31c-3.64,11.163-12.053,17.371-12.138,17.441c-0.508,0.37-0.779,0.971-0.728,1.605
		c0.051,0.634,0.44,1.181,0.982,1.445c2.59,1.217,5.028,1.534,6.483,1.587c0.626,2.47,0.677,4.762,0.677,4.779
		c0,0.6,0.305,1.146,0.796,1.464c0.271,0.177,0.592,0.265,0.897,0.265c0.237,0,0.491-0.053,0.711-0.158
		c9.751-4.779,14.795-14.55,17.386-22.644c0.88,0.423,1.828,0.723,2.861,0.723s1.98-0.3,2.861-0.723
		c2.59,8.094,7.635,17.864,17.386,22.644c0.271,0.088,0.524,0.141,0.762,0.141c0.305,0,0.626-0.088,0.897-0.265
		c0.49-0.317,0.778-0.882,0.795-1.464c0-0.018,0.034-2.31,0.678-4.779c1.455-0.07,3.894-0.388,6.483-1.587
		c0.559-0.265,0.931-0.811,0.999-1.446c0.067-0.635-0.221-1.252-0.728-1.604c-0.085-0.07-8.499-6.278-12.139-17.441
		c0.508-0.74,0.914-1.552,1.287-2.31c0.508-1.005,0.981-1.94,1.557-2.54c0.576-0.6,1.49-1.094,2.438-1.622
		c1.524-0.829,3.268-1.764,4.232-3.527c0.966-1.729,0.881-3.738,0.813-5.52c-0.05-1.146-0.084-2.222,0.136-3.069
		C326.283,417.039,326.825,416.157,327.384,415.223z"/>
	<path fill="#258CEB" d="M329.953,414.976c1.012-1.601,2.17-3.403,2.17-5.556s-1.158-3.974-2.17-5.556
		c-0.626-0.975-1.214-1.895-1.436-2.723c-0.238-0.883-0.184-2.005-0.146-3.201c0.073-1.858,0.165-3.974-0.884-5.758
		c-1.048-1.821-2.943-2.814-4.599-3.679c-1.049-0.552-2.023-1.067-2.649-1.692c-0.625-0.626-1.141-1.619-1.692-2.667
		c-0.864-1.656-1.84-3.532-3.679-4.6c-1.804-1.048-3.919-0.956-5.759-0.883c-1.195,0.055-2.317,0.092-3.2-0.147
		c-0.828-0.221-1.748-0.81-2.705-1.417c-1.582-0.994-3.402-2.152-5.555-2.152c-2.152,0-3.974,1.159-5.556,2.17
		c-0.975,0.625-1.895,1.214-2.723,1.435c-0.883,0.239-2.005,0.184-3.201,0.147c-1.858-0.074-3.955-0.166-5.758,0.883
		c-1.821,1.049-2.815,2.943-3.679,4.599c-0.552,1.048-1.067,2.024-1.692,2.667c-0.625,0.625-1.619,1.14-2.649,1.692
		c-1.655,0.865-3.55,1.84-4.599,3.679c-1.048,1.803-0.957,3.918-0.883,5.777c0.055,1.195,0.092,2.318-0.147,3.201
		c-0.221,0.828-0.81,1.748-1.435,2.723c-1.012,1.601-2.171,3.403-2.171,5.556s1.159,3.974,2.171,5.556
		c0.625,0.975,1.214,1.895,1.417,2.705c0.239,0.883,0.184,2.005,0.147,3.201c-0.073,1.858-0.166,3.974,0.883,5.758
		c1.048,1.821,2.943,2.814,4.599,3.679c1.048,0.552,2.023,1.067,2.667,1.692c0.625,0.626,1.14,1.619,1.692,2.649
		c0.405,0.791,0.864,1.637,1.398,2.41c-3.955,11.645-13.098,18.12-13.19,18.193c-0.552,0.387-0.846,1.013-0.791,1.675
		c0.055,0.662,0.478,1.232,1.067,1.508c2.814,1.27,5.464,1.601,7.046,1.655c0.68,2.576,0.736,4.968,0.736,4.986
		c0,0.625,0.331,1.195,0.865,1.526c0.294,0.185,0.644,0.276,0.975,0.276c0.257,0,0.534-0.056,0.773-0.166
		c10.596-4.985,16.078-15.177,18.893-23.621c0.957,0.442,1.987,0.755,3.109,0.755c1.123,0,2.153-0.313,3.109-0.755
		c2.814,8.444,8.297,18.636,18.894,23.621c0.294,0.092,0.57,0.147,0.827,0.147c0.331,0,0.682-0.092,0.976-0.275
		c0.533-0.332,0.847-0.921,0.864-1.527c0-0.019,0.037-2.41,0.736-4.985c1.582-0.074,4.231-0.404,7.046-1.656
		c0.606-0.275,1.012-0.846,1.085-1.508s-0.239-1.307-0.791-1.675c-0.092-0.073-9.234-6.549-13.19-18.193
		c0.553-0.772,0.994-1.619,1.398-2.41c0.552-1.049,1.067-2.023,1.692-2.648c0.626-0.626,1.619-1.141,2.649-1.693
		c1.655-0.864,3.551-1.839,4.599-3.679c1.049-1.803,0.957-3.9,0.883-5.758c-0.055-1.196-0.092-2.318,0.147-3.201
		C328.757,416.871,329.346,415.951,329.953,414.976z M276.438,462.162c-0.184-1.307-0.515-2.907-1.067-4.488
		c-0.276-0.791-1.049-1.307-1.876-1.233c-0.019,0-1.601,0.11-3.753-0.35c3.164-2.832,8.297-8.406,11.369-16.464
		c1.637,0.681,3.44,0.607,5.059,0.533c1.196-0.056,2.318-0.092,3.201,0.147c0.589,0.165,1.232,0.515,1.895,0.92
		C288.984,448.42,284.643,457.195,276.438,462.162z M325.556,456.091c-2.134,0.479-3.716,0.35-3.733,0.35
		c-0.81-0.073-1.619,0.424-1.896,1.215c-0.552,1.582-0.883,3.183-1.067,4.488c-8.204-4.948-12.546-13.742-14.827-20.935
		c0.662-0.405,1.306-0.755,1.896-0.92c0.883-0.239,2.005-0.185,3.2-0.147c1.619,0.073,3.422,0.129,5.06-0.533
		C317.26,447.685,322.393,453.259,325.556,456.091z M326.863,413.007c-0.736,1.159-1.509,2.373-1.876,3.734
		c-0.387,1.417-0.313,2.888-0.258,4.305c0.055,1.491,0.11,2.907-0.387,3.771c-0.515,0.901-1.784,1.564-3.109,2.263
		c-1.251,0.644-2.538,1.325-3.55,2.355c-1.03,1.029-1.692,2.317-2.355,3.55c-0.698,1.343-1.361,2.594-2.263,3.109
		c-0.883,0.496-2.28,0.441-3.771,0.386c-1.417-0.055-2.889-0.109-4.305,0.258c-1.361,0.368-2.575,1.141-3.734,1.877
		c-1.288,0.827-2.502,1.6-3.587,1.6s-2.3-0.772-3.587-1.6c-1.159-0.736-2.373-1.509-3.734-1.877
		c-0.901-0.239-1.821-0.313-2.741-0.313c-0.515,0-1.048,0.019-1.563,0.037c-1.49,0.073-2.907,0.11-3.771-0.387
		c-0.901-0.515-1.563-1.784-2.263-3.127c-0.644-1.251-1.325-2.539-2.336-3.551c-1.03-1.03-2.318-1.692-3.55-2.354
		c-1.343-0.699-2.594-1.361-3.109-2.263c-0.515-0.884-0.441-2.281-0.386-3.771c0.055-1.417,0.11-2.87-0.258-4.305
		c-0.368-1.361-1.141-2.575-1.876-3.734c-0.828-1.288-1.601-2.501-1.601-3.587s0.773-2.3,1.601-3.587
		c0.736-1.159,1.509-2.373,1.876-3.734c0.386-1.417,0.313-2.888,0.258-4.305c-0.056-1.49-0.111-2.907,0.386-3.771
		c0.516-0.901,1.785-1.563,3.109-2.263c1.251-0.644,2.539-1.325,3.55-2.336c1.03-1.03,1.692-2.318,2.355-3.55
		c0.699-1.343,1.361-2.594,2.244-3.109c0.883-0.515,2.281-0.46,3.771-0.386c1.417,0.055,2.87,0.11,4.305-0.258
		c1.361-0.368,2.575-1.141,3.734-1.876c1.269-0.81,2.483-1.582,3.569-1.582s2.299,0.772,3.587,1.601
		c1.158,0.736,2.373,1.508,3.734,1.876c1.416,0.386,2.888,0.331,4.305,0.257c1.49-0.055,2.906-0.11,3.771,0.387
		c0.901,0.515,1.563,1.784,2.244,3.108c0.644,1.251,1.324,2.539,2.354,3.551c1.03,1.03,2.318,1.692,3.551,2.354
		c1.343,0.699,2.594,1.361,3.108,2.263c0.516,0.883,0.442,2.281,0.387,3.771c-0.055,1.417-0.11,2.87,0.258,4.305
		c0.368,1.361,1.141,2.576,1.876,3.734c0.828,1.288,1.601,2.502,1.601,3.587C328.445,410.505,327.672,411.72,326.863,413.007z"/>
	<path fill="#258CEB" d="M312.826,402.761l-9.346-1.361l-4.176-8.462c-0.626-1.251-2.686-1.251-3.293,0l-4.176,8.462l-9.345,1.361
		c-0.699,0.092-1.27,0.588-1.49,1.25c-0.22,0.663-0.037,1.398,0.46,1.876l6.77,6.586l-1.601,9.309
		c-0.11,0.699,0.166,1.38,0.736,1.803c0.313,0.239,0.699,0.35,1.085,0.35c0.294,0,0.589-0.073,0.846-0.221l8.352-4.378l8.352,4.397
		c0.607,0.331,1.361,0.275,1.932-0.147c0.57-0.404,0.846-1.104,0.735-1.803l-1.601-9.309l6.771-6.586
		c0.496-0.497,0.681-1.214,0.46-1.876C314.096,403.349,313.506,402.853,312.826,402.761z M303.812,410.524
		c-0.441,0.423-0.626,1.03-0.533,1.619l1.122,6.586l-5.924-3.109c-0.239-0.128-0.533-0.202-0.828-0.202s-0.589,0.074-0.846,0.221
		l-5.924,3.108l1.122-6.585c0.111-0.589-0.092-1.214-0.533-1.619l-4.783-4.673l6.604-0.957c0.607-0.092,1.122-0.459,1.38-1.011
		l2.98-5.998l2.962,5.998c0.275,0.533,0.79,0.919,1.379,1.011l6.604,0.957L303.812,410.524z"/>
	<path fill="#FFFFFF" d="M303.812,410.524c-0.441,0.423-0.626,1.03-0.533,1.619l1.122,6.586l-5.924-3.109
		c-0.239-0.128-0.533-0.202-0.828-0.202s-0.589,0.074-0.846,0.221l-5.924,3.108l1.122-6.585c0.111-0.589-0.092-1.214-0.533-1.619
		l-4.783-4.673l6.604-0.957c0.607-0.092,1.122-0.459,1.38-1.011l2.98-5.998l2.962,5.998c0.275,0.533,0.79,0.919,1.379,1.011
		l6.604,0.957L303.812,410.524z"/>
</g>
</svg>
