<?xml version="1.0" encoding="utf-8"?>
<!-- Generator: Adobe Illustrator 16.0.0, SVG Export Plug-In . SVG Version: 6.00 Build 0)  -->
<!DOCTYPE svg PUBLIC "-//W3C//DTD SVG 1.1//EN" "http://www.w3.org/Graphics/SVG/1.1/DTD/svg11.dtd">
<svg version="1.1" id="Layer_1" xmlns="http://www.w3.org/2000/svg" xmlns:xlink="http://www.w3.org/1999/xlink" x="0px" y="0px"
	 width="106.219px" height="92px" viewBox="244.531 374.945 106.219 92" enable-background="new 244.531 374.945 106.219 92"
	 xml:space="preserve">
<g>
	<path fill="#258CEB" d="M350.742,408.586c0.015-0.179,0.005-0.355-0.024-0.524c-0.005-0.025-0.006-0.049-0.011-0.075
		c-0.04-0.185-0.107-0.358-0.194-0.519c-0.008-0.016-0.009-0.035-0.019-0.051l-17.975-31.586c-0.026-0.048-0.066-0.084-0.097-0.13
		c-0.037-0.056-0.075-0.109-0.119-0.16c-0.064-0.077-0.137-0.141-0.212-0.204c-0.048-0.039-0.093-0.081-0.144-0.115
		c-0.088-0.058-0.183-0.101-0.278-0.142c-0.047-0.02-0.091-0.047-0.141-0.061c-0.148-0.045-0.303-0.074-0.462-0.074h-33.424H264.21
		c-0.158,0-0.313,0.029-0.462,0.074c-0.049,0.016-0.093,0.042-0.141,0.061c-0.097,0.041-0.191,0.083-0.278,0.142
		c-0.051,0.034-0.096,0.076-0.143,0.115c-0.075,0.062-0.147,0.127-0.212,0.204c-0.043,0.05-0.08,0.104-0.119,0.16
		c-0.03,0.044-0.069,0.082-0.097,0.13l-17.971,31.586c-0.01,0.016-0.011,0.035-0.019,0.051c-0.086,0.161-0.153,0.333-0.193,0.519
		c-0.006,0.026-0.007,0.05-0.012,0.076c-0.029,0.168-0.039,0.342-0.024,0.521c0.001,0.022,0,0.045,0.002,0.067
		c0.001,0.012,0,0.022,0.001,0.034c0.008,0.061,0.039,0.11,0.051,0.169c0.032,0.147,0.066,0.291,0.13,0.428
		c0.042,0.091,0.103,0.163,0.157,0.245c0.051,0.075,0.085,0.161,0.147,0.23l51.406,56.638c0.033,0.036,0.071,0.063,0.106,0.096
		c0.026,0.023,0.05,0.047,0.077,0.069c0.132,0.109,0.274,0.198,0.428,0.261c0.026,0.011,0.053,0.018,0.079,0.026
		c0.168,0.06,0.342,0.099,0.521,0.099c0.18,0,0.354-0.039,0.522-0.099c0.026-0.009,0.053-0.016,0.079-0.026
		c0.153-0.063,0.296-0.151,0.427-0.263c0.027-0.021,0.053-0.045,0.077-0.07c0.035-0.032,0.073-0.06,0.106-0.096l51.4-56.636
		c0.007-0.008,0.009-0.017,0.015-0.025c0.118-0.134,0.215-0.289,0.294-0.458c0.015-0.031,0.027-0.06,0.039-0.091
		c0.063-0.156,0.113-0.32,0.137-0.497c0.001-0.012,0-0.023,0.001-0.035C350.742,408.628,350.741,408.607,350.742,408.586z"/>
	<polygon fill="#C0EEC7" points="264.444,379.978 281.324,401.047 249.648,405.982 	"/>
	<polygon fill="#FFFFFF" points="287.629,400.537 297.642,380.715 307.651,400.537 	"/>
	<polygon fill="#FFFFFF" points="308.418,404.313 297.642,456.542 286.86,404.313 	"/>
	<polygon fill="#C0EEC7" points="283.393,404.539 294.656,459.097 249.877,409.759 	"/>
	<polygon fill="#C0EEC7" points="311.887,404.539 345.404,409.761 300.631,459.097 	"/>
	<polygon fill="#C0EEC7" points="313.955,401.047 330.836,379.978 345.633,405.983 	"/>
	<polygon fill="#C0EEC7" points="327.271,378.722 310.885,399.174 300.558,378.722 327.271,378.722 	"/>
	<polygon fill="#C0EEC7" points="294.729,378.722 284.395,399.175 268.009,378.722 	"/>
</g>
</svg>
